solid csg.js
facet normal 0.9951847266721968 -0.09801714032956069 0
outer loop
vertex 3 0 0
vertex 3 0 3
vertex 2.9423558412096913 -0.5852709660483848 3
endloop
endfacet
facet normal 0.9951847266721968 -0.09801714032956069 0
outer loop
vertex 3 0 0
vertex 2.9423558412096913 -0.5852709660483848 3
vertex 2.9423558412096913 -0.5852709660483848 0
endloop
endfacet
facet normal 0 0 1
outer loop
vertex 3 0 3
vertex 2.8 0 3
vertex 2.746198785129045 -0.546252901645159 3
endloop
endfacet
facet normal 0 0 1
outer loop
vertex 3 0 3
vertex 2.746198785129045 -0.546252901645159 3
vertex 2.9423558412096913 -0.5852709660483848 3
endloop
endfacet
facet normal -0.9951847266721968 0.0980171403295607 0
outer loop
vertex 2.8 0 3
vertex 2.8 0 0
vertex 2.746198785129045 -0.546252901645159 0
endloop
endfacet
facet normal -0.9951847266721968 0.0980171403295607 0
outer loop
vertex 2.8 0 3
vertex 2.746198785129045 -0.546252901645159 0
vertex 2.746198785129045 -0.546252901645159 3
endloop
endfacet
facet normal 0 0 -1
outer loop
vertex 2.8 0 0
vertex 3 0 0
vertex 2.9423558412096913 -0.5852709660483848 0
endloop
endfacet
facet normal 0 0 -1
outer loop
vertex 2.8 0 0
vertex 2.9423558412096913 -0.5852709660483848 0
vertex 2.746198785129045 -0.546252901645159 0
endloop
endfacet
facet normal 0.9569403357322087 -0.2902846772544627 0
outer loop
vertex 2.9423558412096913 -0.5852709660483848 0
vertex 2.9423558412096913 -0.5852709660483848 3
vertex 2.77163859753386 -1.1480502970952693 3
endloop
endfacet
facet normal 0.9569403357322087 -0.2902846772544627 0
outer loop
vertex 2.9423558412096913 -0.5852709660483848 0
vertex 2.77163859753386 -1.1480502970952693 3
vertex 2.77163859753386 -1.1480502970952693 0
endloop
endfacet
facet normal 0 0 1
outer loop
vertex 2.9423558412096913 -0.5852709660483848 3
vertex 2.746198785129045 -0.546252901645159 3
vertex 2.5868626910316026 -1.0715136106222514 3
endloop
endfacet
facet normal 0 0 1
outer loop
vertex 2.9423558412096913 -0.5852709660483848 3
vertex 2.5868626910316026 -1.0715136106222514 3
vertex 2.77163859753386 -1.1480502970952693 3
endloop
endfacet
facet normal -0.9569403357322088 0.29028467725446244 0
outer loop
vertex 2.746198785129045 -0.546252901645159 3
vertex 2.746198785129045 -0.546252901645159 0
vertex 2.5868626910316026 -1.0715136106222514 0
endloop
endfacet
facet normal -0.9569403357322088 0.29028467725446244 0
outer loop
vertex 2.746198785129045 -0.546252901645159 3
vertex 2.5868626910316026 -1.0715136106222514 0
vertex 2.5868626910316026 -1.0715136106222514 3
endloop
endfacet
facet normal 0 0 -1
outer loop
vertex 2.746198785129045 -0.546252901645159 0
vertex 2.9423558412096913 -0.5852709660483848 0
vertex 2.77163859753386 -1.1480502970952693 0
endloop
endfacet
facet normal 0 0 -1
outer loop
vertex 2.746198785129045 -0.546252901645159 0
vertex 2.77163859753386 -1.1480502970952693 0
vertex 2.5868626910316026 -1.0715136106222514 0
endloop
endfacet
facet normal 0.881921264348355 -0.47139673682599753 0
outer loop
vertex 2.77163859753386 -1.1480502970952693 0
vertex 2.77163859753386 -1.1480502970952693 3
vertex 2.4944088369076356 -1.6667106990588065 3
endloop
endfacet
facet normal 0.881921264348355 -0.47139673682599753 0
outer loop
vertex 2.77163859753386 -1.1480502970952693 0
vertex 2.4944088369076356 -1.6667106990588065 3
vertex 2.4944088369076356 -1.6667106990588065 0
endloop
endfacet
facet normal 0 0 1
outer loop
vertex 2.77163859753386 -1.1480502970952693 3
vertex 2.5868626910316026 -1.0715136106222514 3
vertex 2.3281149144471267 -1.555596652454886 3
endloop
endfacet
facet normal 0 0 1
outer loop
vertex 2.77163859753386 -1.1480502970952693 3
vertex 2.3281149144471267 -1.555596652454886 3
vertex 2.4944088369076356 -1.6667106990588065 3
endloop
endfacet
facet normal -0.8819212643483552 0.4713967368259972 0
outer loop
vertex 2.5868626910316026 -1.0715136106222514 3
vertex 2.5868626910316026 -1.0715136106222514 0
vertex 2.3281149144471267 -1.555596652454886 0
endloop
endfacet
facet normal -0.8819212643483552 0.4713967368259972 0
outer loop
vertex 2.5868626910316026 -1.0715136106222514 3
vertex 2.3281149144471267 -1.555596652454886 0
vertex 2.3281149144471267 -1.555596652454886 3
endloop
endfacet
facet normal 0 0 -1
outer loop
vertex 2.5868626910316026 -1.0715136106222514 0
vertex 2.77163859753386 -1.1480502970952693 0
vertex 2.4944088369076356 -1.6667106990588065 0
endloop
endfacet
facet normal 0 0 -1
outer loop
vertex 2.5868626910316026 -1.0715136106222514 0
vertex 2.4944088369076356 -1.6667106990588065 0
vertex 2.3281149144471267 -1.555596652454886 0
endloop
endfacet
facet normal 0.7730104533627373 -0.6343932841636453 0
outer loop
vertex 2.4944088369076356 -1.6667106990588065 0
vertex 2.4944088369076356 -1.6667106990588065 3
vertex 2.121320343559643 -2.1213203435596424 3
endloop
endfacet
facet normal 0.7730104533627373 -0.6343932841636453 0
outer loop
vertex 2.4944088369076356 -1.6667106990588065 0
vertex 2.121320343559643 -2.1213203435596424 3
vertex 2.121320343559643 -2.1213203435596424 0
endloop
endfacet
facet normal 0 0 1
outer loop
vertex 2.4944088369076356 -1.6667106990588065 3
vertex 2.3281149144471267 -1.555596652454886 3
vertex 1.9798989873223332 -1.9798989873223327 3
endloop
endfacet
facet normal 0 0 1
outer loop
vertex 2.4944088369076356 -1.6667106990588065 3
vertex 1.9798989873223332 -1.9798989873223327 3
vertex 2.121320343559643 -2.1213203435596424 3
endloop
endfacet
facet normal -0.7730104533627368 0.6343932841636456 0
outer loop
vertex 2.3281149144471267 -1.555596652454886 3
vertex 2.3281149144471267 -1.555596652454886 0
vertex 1.9798989873223332 -1.9798989873223327 0
endloop
endfacet
facet normal -0.7730104533627368 0.6343932841636456 0
outer loop
vertex 2.3281149144471267 -1.555596652454886 3
vertex 1.9798989873223332 -1.9798989873223327 0
vertex 1.9798989873223332 -1.9798989873223327 3
endloop
endfacet
facet normal 0 0 -1
outer loop
vertex 2.3281149144471267 -1.555596652454886 0
vertex 2.4944088369076356 -1.6667106990588065 0
vertex 2.121320343559643 -2.1213203435596424 0
endloop
endfacet
facet normal 0 0 -1
outer loop
vertex 2.3281149144471267 -1.555596652454886 0
vertex 2.121320343559643 -2.1213203435596424 0
vertex 1.9798989873223332 -1.9798989873223327 0
endloop
endfacet
facet normal 0.6343932841636456 -0.7730104533627368 0
outer loop
vertex 2.121320343559643 -2.1213203435596424 0
vertex 2.121320343559643 -2.1213203435596424 3
vertex 1.666710699058807 -2.4944088369076356 3
endloop
endfacet
facet normal 0.6343932841636456 -0.7730104533627368 0
outer loop
vertex 2.121320343559643 -2.1213203435596424 0
vertex 1.666710699058807 -2.4944088369076356 3
vertex 1.666710699058807 -2.4944088369076356 0
endloop
endfacet
facet normal 0 0 1
outer loop
vertex 2.121320343559643 -2.1213203435596424 3
vertex 1.9798989873223332 -1.9798989873223327 3
vertex 1.5555966524548863 -2.3281149144471267 3
endloop
endfacet
facet normal 0 0 1
outer loop
vertex 2.121320343559643 -2.1213203435596424 3
vertex 1.5555966524548863 -2.3281149144471267 3
vertex 1.666710699058807 -2.4944088369076356 3
endloop
endfacet
facet normal -0.6343932841636459 0.7730104533627365 0
outer loop
vertex 1.9798989873223332 -1.9798989873223327 3
vertex 1.9798989873223332 -1.9798989873223327 0
vertex 1.5555966524548863 -2.3281149144471267 0
endloop
endfacet
facet normal -0.6343932841636459 0.7730104533627365 0
outer loop
vertex 1.9798989873223332 -1.9798989873223327 3
vertex 1.5555966524548863 -2.3281149144471267 0
vertex 1.5555966524548863 -2.3281149144471267 3
endloop
endfacet
facet normal 0 0 -1
outer loop
vertex 1.9798989873223332 -1.9798989873223327 0
vertex 2.121320343559643 -2.1213203435596424 0
vertex 1.666710699058807 -2.4944088369076356 0
endloop
endfacet
facet normal 0 0 -1
outer loop
vertex 1.9798989873223332 -1.9798989873223327 0
vertex 1.666710699058807 -2.4944088369076356 0
vertex 1.5555966524548863 -2.3281149144471267 0
endloop
endfacet
facet normal 0.47139673682599736 -0.8819212643483552 0
outer loop
vertex 1.666710699058807 -2.4944088369076356 0
vertex 1.666710699058807 -2.4944088369076356 3
vertex 1.1480502970952695 -2.77163859753386 3
endloop
endfacet
facet normal 0.47139673682599736 -0.8819212643483552 0
outer loop
vertex 1.666710699058807 -2.4944088369076356 0
vertex 1.1480502970952695 -2.77163859753386 3
vertex 1.1480502970952695 -2.77163859753386 0
endloop
endfacet
facet normal 0 0 1
outer loop
vertex 1.666710699058807 -2.4944088369076356 3
vertex 1.5555966524548863 -2.3281149144471267 3
vertex 1.0715136106222514 -2.5868626910316026 3
endloop
endfacet
facet normal 0 0 1
outer loop
vertex 1.666710699058807 -2.4944088369076356 3
vertex 1.0715136106222514 -2.5868626910316026 3
vertex 1.1480502970952695 -2.77163859753386 3
endloop
endfacet
facet normal -0.4713967368259971 0.8819212643483554 0
outer loop
vertex 1.5555966524548863 -2.3281149144471267 3
vertex 1.5555966524548863 -2.3281149144471267 0
vertex 1.0715136106222514 -2.5868626910316026 0
endloop
endfacet
facet normal -0.4713967368259971 0.8819212643483554 0
outer loop
vertex 1.5555966524548863 -2.3281149144471267 3
vertex 1.0715136106222514 -2.5868626910316026 0
vertex 1.0715136106222514 -2.5868626910316026 3
endloop
endfacet
facet normal 0 0 -1
outer loop
vertex 1.5555966524548863 -2.3281149144471267 0
vertex 1.666710699058807 -2.4944088369076356 0
vertex 1.1480502970952695 -2.77163859753386 0
endloop
endfacet
facet normal 0 0 -1
outer loop
vertex 1.5555966524548863 -2.3281149144471267 0
vertex 1.1480502970952695 -2.77163859753386 0
vertex 1.0715136106222514 -2.5868626910316026 0
endloop
endfacet
facet normal 0.2902846772544624 -0.9569403357322088 0
outer loop
vertex 1.1480502970952695 -2.77163859753386 0
vertex 1.1480502970952695 -2.77163859753386 3
vertex 0.5852709660483844 -2.9423558412096913 3
endloop
endfacet
facet normal 0.2902846772544624 -0.9569403357322088 0
outer loop
vertex 1.1480502970952695 -2.77163859753386 0
vertex 0.5852709660483844 -2.9423558412096913 3
vertex 0.5852709660483844 -2.9423558412096913 0
endloop
endfacet
facet normal 0 0 1
outer loop
vertex 1.1480502970952695 -2.77163859753386 3
vertex 1.0715136106222514 -2.5868626910316026 3
vertex 0.5462529016451587 -2.746198785129045 3
endloop
endfacet
facet normal 0 0 1
outer loop
vertex 1.1480502970952695 -2.77163859753386 3
vertex 0.5462529016451587 -2.746198785129045 3
vertex 0.5852709660483844 -2.9423558412096913 3
endloop
endfacet
facet normal -0.2902846772544623 0.9569403357322088 0
outer loop
vertex 1.0715136106222514 -2.5868626910316026 3
vertex 1.0715136106222514 -2.5868626910316026 0
vertex 0.5462529016451587 -2.746198785129045 0
endloop
endfacet
facet normal -0.2902846772544623 0.9569403357322088 0
outer loop
vertex 1.0715136106222514 -2.5868626910316026 3
vertex 0.5462529016451587 -2.746198785129045 0
vertex 0.5462529016451587 -2.746198785129045 3
endloop
endfacet
facet normal 0 0 -1
outer loop
vertex 1.0715136106222514 -2.5868626910316026 0
vertex 1.1480502970952695 -2.77163859753386 0
vertex 0.5852709660483844 -2.9423558412096913 0
endloop
endfacet
facet normal 0 0 -1
outer loop
vertex 1.0715136106222514 -2.5868626910316026 0
vertex 0.5852709660483844 -2.9423558412096913 0
vertex 0.5462529016451587 -2.746198785129045 0
endloop
endfacet
facet normal 0.0980171403295608 -0.9951847266721968 0
outer loop
vertex 0.5852709660483844 -2.9423558412096913 0
vertex 0.5852709660483844 -2.9423558412096913 3
vertex 1.836909530733566e-16 -3 3
endloop
endfacet
facet normal 0.0980171403295608 -0.9951847266721968 0
outer loop
vertex 0.5852709660483844 -2.9423558412096913 0
vertex 1.836909530733566e-16 -3 3
vertex 1.836909530733566e-16 -3 0
endloop
endfacet
facet normal 0 0 1
outer loop
vertex 0.5852709660483844 -2.9423558412096913 3
vertex 0.5462529016451587 -2.746198785129045 3
vertex 1.714448895351328e-16 -2.8 3
endloop
endfacet
facet normal 0 0 1
outer loop
vertex 0.5852709660483844 -2.9423558412096913 3
vertex 1.714448895351328e-16 -2.8 3
vertex 1.836909530733566e-16 -3 3
endloop
endfacet
facet normal -0.09801714032956081 0.9951847266721968 0
outer loop
vertex 0.5462529016451587 -2.746198785129045 3
vertex 0.5462529016451587 -2.746198785129045 0
vertex 1.714448895351328e-16 -2.8 0
endloop
endfacet
facet normal -0.09801714032956081 0.9951847266721968 0
outer loop
vertex 0.5462529016451587 -2.746198785129045 3
vertex 1.714448895351328e-16 -2.8 0
vertex 1.714448895351328e-16 -2.8 3
endloop
endfacet
facet normal 0 0 -1
outer loop
vertex 0.5462529016451587 -2.746198785129045 0
vertex 0.5852709660483844 -2.9423558412096913 0
vertex 1.836909530733566e-16 -3 0
endloop
endfacet
facet normal 0 0 -1
outer loop
vertex 0.5462529016451587 -2.746198785129045 0
vertex 1.836909530733566e-16 -3 0
vertex 1.714448895351328e-16 -2.8 0
endloop
endfacet
facet normal -0.09801714032956069 -0.9951847266721968 0
outer loop
vertex 1.836909530733566e-16 -3 0
vertex 1.836909530733566e-16 -3 3
vertex -0.5852709660483846 -2.9423558412096913 3
endloop
endfacet
facet normal -0.09801714032956069 -0.9951847266721968 0
outer loop
vertex 1.836909530733566e-16 -3 0
vertex -0.5852709660483846 -2.9423558412096913 3
vertex -0.5852709660483846 -2.9423558412096913 0
endloop
endfacet
facet normal 0 0 1
outer loop
vertex 1.836909530733566e-16 -3 3
vertex 1.714448895351328e-16 -2.8 3
vertex -0.5462529016451589 -2.746198785129045 3
endloop
endfacet
facet normal 0 0 1
outer loop
vertex 1.836909530733566e-16 -3 3
vertex -0.5462529016451589 -2.746198785129045 3
vertex -0.5852709660483846 -2.9423558412096913 3
endloop
endfacet
facet normal 0.09801714032956069 0.9951847266721968 0
outer loop
vertex 1.714448895351328e-16 -2.8 3
vertex 1.714448895351328e-16 -2.8 0
vertex -0.5462529016451589 -2.746198785129045 0
endloop
endfacet
facet normal 0.09801714032956069 0.9951847266721968 0
outer loop
vertex 1.714448895351328e-16 -2.8 3
vertex -0.5462529016451589 -2.746198785129045 0
vertex -0.5462529016451589 -2.746198785129045 3
endloop
endfacet
facet normal 0 0 -1
outer loop
vertex 1.714448895351328e-16 -2.8 0
vertex 1.836909530733566e-16 -3 0
vertex -0.5852709660483846 -2.9423558412096913 0
endloop
endfacet
facet normal 0 0 -1
outer loop
vertex 1.714448895351328e-16 -2.8 0
vertex -0.5852709660483846 -2.9423558412096913 0
vertex -0.5462529016451589 -2.746198785129045 0
endloop
endfacet
facet normal -0.2902846772544626 -0.9569403357322087 0
outer loop
vertex -0.5852709660483846 -2.9423558412096913 0
vertex -0.5852709660483846 -2.9423558412096913 3
vertex -1.1480502970952693 -2.77163859753386 3
endloop
endfacet
facet normal -0.2902846772544626 -0.9569403357322087 0
outer loop
vertex -0.5852709660483846 -2.9423558412096913 0
vertex -1.1480502970952693 -2.77163859753386 3
vertex -1.1480502970952693 -2.77163859753386 0
endloop
endfacet
facet normal 0 0 1
outer loop
vertex -0.5852709660483846 -2.9423558412096913 3
vertex -0.5462529016451589 -2.746198785129045 3
vertex -1.0715136106222511 -2.5868626910316026 3
endloop
endfacet
facet normal 0 0 1
outer loop
vertex -0.5852709660483846 -2.9423558412096913 3
vertex -1.0715136106222511 -2.5868626910316026 3
vertex -1.1480502970952693 -2.77163859753386 3
endloop
endfacet
facet normal 0.2902846772544625 0.9569403357322088 0
outer loop
vertex -0.5462529016451589 -2.746198785129045 3
vertex -0.5462529016451589 -2.746198785129045 0
vertex -1.0715136106222511 -2.5868626910316026 0
endloop
endfacet
facet normal 0.2902846772544625 0.9569403357322088 0
outer loop
vertex -0.5462529016451589 -2.746198785129045 3
vertex -1.0715136106222511 -2.5868626910316026 0
vertex -1.0715136106222511 -2.5868626910316026 3
endloop
endfacet
facet normal 0 0 -1
outer loop
vertex -0.5462529016451589 -2.746198785129045 0
vertex -0.5852709660483846 -2.9423558412096913 0
vertex -1.1480502970952693 -2.77163859753386 0
endloop
endfacet
facet normal 0 0 -1
outer loop
vertex -0.5462529016451589 -2.746198785129045 0
vertex -1.1480502970952693 -2.77163859753386 0
vertex -1.0715136106222511 -2.5868626910316026 0
endloop
endfacet
facet normal -0.47139673682599714 -0.8819212643483552 0
outer loop
vertex -1.1480502970952693 -2.77163859753386 0
vertex -1.1480502970952693 -2.77163859753386 3
vertex -1.666710699058807 -2.4944088369076356 3
endloop
endfacet
facet normal -0.47139673682599714 -0.8819212643483552 0
outer loop
vertex -1.1480502970952693 -2.77163859753386 0
vertex -1.666710699058807 -2.4944088369076356 3
vertex -1.666710699058807 -2.4944088369076356 0
endloop
endfacet
facet normal 0 0 1
outer loop
vertex -1.1480502970952693 -2.77163859753386 3
vertex -1.0715136106222511 -2.5868626910316026 3
vertex -1.5555966524548863 -2.3281149144471263 3
endloop
endfacet
facet normal 0 0 1
outer loop
vertex -1.1480502970952693 -2.77163859753386 3
vertex -1.5555966524548863 -2.3281149144471263 3
vertex -1.666710699058807 -2.4944088369076356 3
endloop
endfacet
facet normal 0.47139673682599753 0.881921264348355 0
outer loop
vertex -1.0715136106222511 -2.5868626910316026 3
vertex -1.0715136106222511 -2.5868626910316026 0
vertex -1.5555966524548863 -2.3281149144471263 0
endloop
endfacet
facet normal 0.47139673682599753 0.881921264348355 0
outer loop
vertex -1.0715136106222511 -2.5868626910316026 3
vertex -1.5555966524548863 -2.3281149144471263 0
vertex -1.5555966524548863 -2.3281149144471263 3
endloop
endfacet
facet normal 0 0 -1
outer loop
vertex -1.0715136106222511 -2.5868626910316026 0
vertex -1.1480502970952693 -2.77163859753386 0
vertex -1.666710699058807 -2.4944088369076356 0
endloop
endfacet
facet normal 0 0 -1
outer loop
vertex -1.0715136106222511 -2.5868626910316026 0
vertex -1.666710699058807 -2.4944088369076356 0
vertex -1.5555966524548863 -2.3281149144471263 0
endloop
endfacet
facet normal -0.6343932841636455 -0.773010453362737 0
outer loop
vertex -1.666710699058807 -2.4944088369076356 0
vertex -1.666710699058807 -2.4944088369076356 3
vertex -2.1213203435596424 -2.121320343559643 3
endloop
endfacet
facet normal -0.6343932841636455 -0.773010453362737 0
outer loop
vertex -1.666710699058807 -2.4944088369076356 0
vertex -2.1213203435596424 -2.121320343559643 3
vertex -2.1213203435596424 -2.121320343559643 0
endloop
endfacet
facet normal 0 0 1
outer loop
vertex -1.666710699058807 -2.4944088369076356 3
vertex -1.5555966524548863 -2.3281149144471263 3
vertex -1.9798989873223327 -1.9798989873223332 3
endloop
endfacet
facet normal 0 0 1
outer loop
vertex -1.666710699058807 -2.4944088369076356 3
vertex -1.9798989873223327 -1.9798989873223332 3
vertex -2.1213203435596424 -2.121320343559643 3
endloop
endfacet
facet normal 0.6343932841636454 0.773010453362737 0
outer loop
vertex -1.5555966524548863 -2.3281149144471263 3
vertex -1.5555966524548863 -2.3281149144471263 0
vertex -1.9798989873223327 -1.9798989873223332 0
endloop
endfacet
facet normal 0.6343932841636454 0.773010453362737 0
outer loop
vertex -1.5555966524548863 -2.3281149144471263 3
vertex -1.9798989873223327 -1.9798989873223332 0
vertex -1.9798989873223327 -1.9798989873223332 3
endloop
endfacet
facet normal 0 0 -1
outer loop
vertex -1.5555966524548863 -2.3281149144471263 0
vertex -1.666710699058807 -2.4944088369076356 0
vertex -2.1213203435596424 -2.121320343559643 0
endloop
endfacet
facet normal 0 0 -1
outer loop
vertex -1.5555966524548863 -2.3281149144471263 0
vertex -2.1213203435596424 -2.121320343559643 0
vertex -1.9798989873223327 -1.9798989873223332 0
endloop
endfacet
facet normal -0.7730104533627368 -0.6343932841636457 0
outer loop
vertex -2.1213203435596424 -2.121320343559643 0
vertex -2.1213203435596424 -2.121320343559643 3
vertex -2.494408836907636 -1.6667106990588065 3
endloop
endfacet
facet normal -0.7730104533627368 -0.6343932841636457 0
outer loop
vertex -2.1213203435596424 -2.121320343559643 0
vertex -2.494408836907636 -1.6667106990588065 3
vertex -2.494408836907636 -1.6667106990588065 0
endloop
endfacet
facet normal 0 0 1
outer loop
vertex -2.1213203435596424 -2.121320343559643 3
vertex -1.9798989873223327 -1.9798989873223332 3
vertex -2.3281149144471267 -1.555596652454886 3
endloop
endfacet
facet normal 0 0 1
outer loop
vertex -2.1213203435596424 -2.121320343559643 3
vertex -2.3281149144471267 -1.555596652454886 3
vertex -2.494408836907636 -1.6667106990588065 3
endloop
endfacet
facet normal 0.7730104533627368 0.6343932841636457 0
outer loop
vertex -1.9798989873223327 -1.9798989873223332 3
vertex -1.9798989873223327 -1.9798989873223332 0
vertex -2.3281149144471267 -1.555596652454886 0
endloop
endfacet
facet normal 0.7730104533627368 0.6343932841636457 0
outer loop
vertex -1.9798989873223327 -1.9798989873223332 3
vertex -2.3281149144471267 -1.555596652454886 0
vertex -2.3281149144471267 -1.555596652454886 3
endloop
endfacet
facet normal 0 0 -1
outer loop
vertex -1.9798989873223327 -1.9798989873223332 0
vertex -2.1213203435596424 -2.121320343559643 0
vertex -2.494408836907636 -1.6667106990588065 0
endloop
endfacet
facet normal 0 0 -1
outer loop
vertex -1.9798989873223327 -1.9798989873223332 0
vertex -2.494408836907636 -1.6667106990588065 0
vertex -2.3281149144471267 -1.555596652454886 0
endloop
endfacet
facet normal -0.8819212643483554 -0.47139673682599686 0
outer loop
vertex -2.494408836907636 -1.6667106990588065 0
vertex -2.494408836907636 -1.6667106990588065 3
vertex -2.7716385975338604 -1.1480502970952684 3
endloop
endfacet
facet normal -0.8819212643483554 -0.47139673682599686 0
outer loop
vertex -2.494408836907636 -1.6667106990588065 0
vertex -2.7716385975338604 -1.1480502970952684 3
vertex -2.7716385975338604 -1.1480502970952684 0
endloop
endfacet
facet normal 0 0 1
outer loop
vertex -2.494408836907636 -1.6667106990588065 3
vertex -2.3281149144471267 -1.555596652454886 3
vertex -2.586862691031603 -1.0715136106222505 3
endloop
endfacet
facet normal 0 0 1
outer loop
vertex -2.494408836907636 -1.6667106990588065 3
vertex -2.586862691031603 -1.0715136106222505 3
vertex -2.7716385975338604 -1.1480502970952684 3
endloop
endfacet
facet normal 0.8819212643483553 0.4713967368259972 0
outer loop
vertex -2.3281149144471267 -1.555596652454886 3
vertex -2.3281149144471267 -1.555596652454886 0
vertex -2.586862691031603 -1.0715136106222505 0
endloop
endfacet
facet normal 0.8819212643483553 0.4713967368259972 0
outer loop
vertex -2.3281149144471267 -1.555596652454886 3
vertex -2.586862691031603 -1.0715136106222505 0
vertex -2.586862691031603 -1.0715136106222505 3
endloop
endfacet
facet normal 0 0 -1
outer loop
vertex -2.3281149144471267 -1.555596652454886 0
vertex -2.494408836907636 -1.6667106990588065 0
vertex -2.7716385975338604 -1.1480502970952684 0
endloop
endfacet
facet normal 0 0 -1
outer loop
vertex -2.3281149144471267 -1.555596652454886 0
vertex -2.7716385975338604 -1.1480502970952684 0
vertex -2.586862691031603 -1.0715136106222505 0
endloop
endfacet
facet normal -0.9569403357322088 -0.2902846772544623 0
outer loop
vertex -2.7716385975338604 -1.1480502970952684 0
vertex -2.7716385975338604 -1.1480502970952684 3
vertex -2.9423558412096913 -0.5852709660483845 3
endloop
endfacet
facet normal -0.9569403357322088 -0.2902846772544623 0
outer loop
vertex -2.7716385975338604 -1.1480502970952684 0
vertex -2.9423558412096913 -0.5852709660483845 3
vertex -2.9423558412096913 -0.5852709660483845 0
endloop
endfacet
facet normal 0 0 1
outer loop
vertex -2.7716385975338604 -1.1480502970952684 3
vertex -2.586862691031603 -1.0715136106222505 3
vertex -2.746198785129045 -0.5462529016451588 3
endloop
endfacet
facet normal 0 0 1
outer loop
vertex -2.7716385975338604 -1.1480502970952684 3
vertex -2.746198785129045 -0.5462529016451588 3
vertex -2.9423558412096913 -0.5852709660483845 3
endloop
endfacet
facet normal 0.956940335732209 0.29028467725446205 0
outer loop
vertex -2.586862691031603 -1.0715136106222505 3
vertex -2.586862691031603 -1.0715136106222505 0
vertex -2.746198785129045 -0.5462529016451588 0
endloop
endfacet
facet normal 0.956940335732209 0.29028467725446205 0
outer loop
vertex -2.586862691031603 -1.0715136106222505 3
vertex -2.746198785129045 -0.5462529016451588 0
vertex -2.746198785129045 -0.5462529016451588 3
endloop
endfacet
facet normal 0 0 -1
outer loop
vertex -2.586862691031603 -1.0715136106222505 0
vertex -2.7716385975338604 -1.1480502970952684 0
vertex -2.9423558412096913 -0.5852709660483845 0
endloop
endfacet
facet normal 0 0 -1
outer loop
vertex -2.586862691031603 -1.0715136106222505 0
vertex -2.9423558412096913 -0.5852709660483845 0
vertex -2.746198785129045 -0.5462529016451588 0
endloop
endfacet
facet normal -0.9951847266721968 -0.0980171403295608 0
outer loop
vertex -2.9423558412096913 -0.5852709660483845 0
vertex -2.9423558412096913 -0.5852709660483845 3
vertex -3 -3.673819061467132e-16 3
endloop
endfacet
facet normal -0.9951847266721968 -0.0980171403295608 0
outer loop
vertex -2.9423558412096913 -0.5852709660483845 0
vertex -3 -3.673819061467132e-16 3
vertex -3 -3.673819061467132e-16 0
endloop
endfacet
facet normal 0 0 1
outer loop
vertex -2.9423558412096913 -0.5852709660483845 3
vertex -2.746198785129045 -0.5462529016451588 3
vertex -2.8 -3.428897790702656e-16 3
endloop
endfacet
facet normal 0 0 1
outer loop
vertex -2.9423558412096913 -0.5852709660483845 3
vertex -2.8 -3.428897790702656e-16 3
vertex -3 -3.673819061467132e-16 3
endloop
endfacet
facet normal 0.9951847266721968 0.09801714032956081 0
outer loop
vertex -2.746198785129045 -0.5462529016451588 3
vertex -2.746198785129045 -0.5462529016451588 0
vertex -2.8 -3.428897790702656e-16 0
endloop
endfacet
facet normal 0.9951847266721968 0.09801714032956081 0
outer loop
vertex -2.746198785129045 -0.5462529016451588 3
vertex -2.8 -3.428897790702656e-16 0
vertex -2.8 -3.428897790702656e-16 3
endloop
endfacet
facet normal 0 0 -1
outer loop
vertex -2.746198785129045 -0.5462529016451588 0
vertex -2.9423558412096913 -0.5852709660483845 0
vertex -3 -3.673819061467132e-16 0
endloop
endfacet
facet normal 0 0 -1
outer loop
vertex -2.746198785129045 -0.5462529016451588 0
vertex -3 -3.673819061467132e-16 0
vertex -2.8 -3.428897790702656e-16 0
endloop
endfacet
facet normal -0.9951847266721968 0.09801714032956059 0
outer loop
vertex -3 -3.673819061467132e-16 0
vertex -3 -3.673819061467132e-16 3
vertex -2.9423558412096913 0.585270966048385 3
endloop
endfacet
facet normal -0.9951847266721968 0.09801714032956059 0
outer loop
vertex -3 -3.673819061467132e-16 0
vertex -2.9423558412096913 0.585270966048385 3
vertex -2.9423558412096913 0.585270966048385 0
endloop
endfacet
facet normal 0 0 1
outer loop
vertex -3 -3.673819061467132e-16 3
vertex -2.8 -3.428897790702656e-16 3
vertex -2.746198785129045 0.5462529016451594 3
endloop
endfacet
facet normal 0 0 1
outer loop
vertex -3 -3.673819061467132e-16 3
vertex -2.746198785129045 0.5462529016451594 3
vertex -2.9423558412096913 0.585270966048385 3
endloop
endfacet
facet normal 0.9951847266721969 -0.0980171403295606 0
outer loop
vertex -2.8 -3.428897790702656e-16 3
vertex -2.8 -3.428897790702656e-16 0
vertex -2.746198785129045 0.5462529016451594 0
endloop
endfacet
facet normal 0.9951847266721969 -0.0980171403295606 0
outer loop
vertex -2.8 -3.428897790702656e-16 3
vertex -2.746198785129045 0.5462529016451594 0
vertex -2.746198785129045 0.5462529016451594 3
endloop
endfacet
facet normal 0 0 -1
outer loop
vertex -2.8 -3.428897790702656e-16 0
vertex -3 -3.673819061467132e-16 0
vertex -2.9423558412096913 0.585270966048385 0
endloop
endfacet
facet normal 0 0 -1
outer loop
vertex -2.8 -3.428897790702656e-16 0
vertex -2.9423558412096913 0.585270966048385 0
vertex -2.746198785129045 0.5462529016451594 0
endloop
endfacet
facet normal -0.9569403357322089 0.2902846772544623 0
outer loop
vertex -2.9423558412096913 0.585270966048385 0
vertex -2.9423558412096913 0.585270966048385 3
vertex -2.7716385975338604 1.148050297095269 3
endloop
endfacet
facet normal -0.9569403357322089 0.2902846772544623 0
outer loop
vertex -2.9423558412096913 0.585270966048385 0
vertex -2.7716385975338604 1.148050297095269 3
vertex -2.7716385975338604 1.148050297095269 0
endloop
endfacet
facet normal 0 0 1
outer loop
vertex -2.9423558412096913 0.585270966048385 3
vertex -2.746198785129045 0.5462529016451594 3
vertex -2.586862691031603 1.071513610622251 3
endloop
endfacet
facet normal 0 0 1
outer loop
vertex -2.9423558412096913 0.585270966048385 3
vertex -2.586862691031603 1.071513610622251 3
vertex -2.7716385975338604 1.148050297095269 3
endloop
endfacet
facet normal 0.956940335732209 -0.2902846772544621 0
outer loop
vertex -2.746198785129045 0.5462529016451594 3
vertex -2.746198785129045 0.5462529016451594 0
vertex -2.586862691031603 1.071513610622251 0
endloop
endfacet
facet normal 0.956940335732209 -0.2902846772544621 0
outer loop
vertex -2.746198785129045 0.5462529016451594 3
vertex -2.586862691031603 1.071513610622251 0
vertex -2.586862691031603 1.071513610622251 3
endloop
endfacet
facet normal 0 0 -1
outer loop
vertex -2.746198785129045 0.5462529016451594 0
vertex -2.9423558412096913 0.585270966048385 0
vertex -2.7716385975338604 1.148050297095269 0
endloop
endfacet
facet normal 0 0 -1
outer loop
vertex -2.746198785129045 0.5462529016451594 0
vertex -2.7716385975338604 1.148050297095269 0
vertex -2.586862691031603 1.071513610622251 0
endloop
endfacet
facet normal -0.881921264348355 0.47139673682599764 0
outer loop
vertex -2.7716385975338604 1.148050297095269 0
vertex -2.7716385975338604 1.148050297095269 3
vertex -2.4944088369076356 1.666710699058807 3
endloop
endfacet
facet normal -0.881921264348355 0.47139673682599764 0
outer loop
vertex -2.7716385975338604 1.148050297095269 0
vertex -2.4944088369076356 1.666710699058807 3
vertex -2.4944088369076356 1.666710699058807 0
endloop
endfacet
facet normal 0 0 1
outer loop
vertex -2.7716385975338604 1.148050297095269 3
vertex -2.586862691031603 1.071513610622251 3
vertex -2.3281149144471267 1.5555966524548863 3
endloop
endfacet
facet normal 0 0 1
outer loop
vertex -2.7716385975338604 1.148050297095269 3
vertex -2.3281149144471267 1.5555966524548863 3
vertex -2.4944088369076356 1.666710699058807 3
endloop
endfacet
facet normal 0.8819212643483553 -0.4713967368259974 0
outer loop
vertex -2.586862691031603 1.071513610622251 3
vertex -2.586862691031603 1.071513610622251 0
vertex -2.3281149144471267 1.5555966524548863 0
endloop
endfacet
facet normal 0.8819212643483553 -0.4713967368259974 0
outer loop
vertex -2.586862691031603 1.071513610622251 3
vertex -2.3281149144471267 1.5555966524548863 0
vertex -2.3281149144471267 1.5555966524548863 3
endloop
endfacet
facet normal 0 0 -1
outer loop
vertex -2.586862691031603 1.071513610622251 0
vertex -2.7716385975338604 1.148050297095269 0
vertex -2.4944088369076356 1.666710699058807 0
endloop
endfacet
facet normal 0 0 -1
outer loop
vertex -2.586862691031603 1.071513610622251 0
vertex -2.4944088369076356 1.666710699058807 0
vertex -2.3281149144471267 1.5555966524548863 0
endloop
endfacet
facet normal -0.773010453362737 0.6343932841636455 0
outer loop
vertex -2.4944088369076356 1.666710699058807 0
vertex -2.4944088369076356 1.666710699058807 3
vertex -2.121320343559643 2.1213203435596424 3
endloop
endfacet
facet normal -0.773010453362737 0.6343932841636455 0
outer loop
vertex -2.4944088369076356 1.666710699058807 0
vertex -2.121320343559643 2.1213203435596424 3
vertex -2.121320343559643 2.1213203435596424 0
endloop
endfacet
facet normal 0 0 1
outer loop
vertex -2.4944088369076356 1.666710699058807 3
vertex -2.3281149144471267 1.5555966524548863 3
vertex -1.9798989873223334 1.9798989873223327 3
endloop
endfacet
facet normal 0 0 1
outer loop
vertex -2.4944088369076356 1.666710699058807 3
vertex -1.9798989873223334 1.9798989873223327 3
vertex -2.121320343559643 2.1213203435596424 3
endloop
endfacet
facet normal 0.7730104533627369 -0.6343932841636456 0
outer loop
vertex -2.3281149144471267 1.5555966524548863 3
vertex -2.3281149144471267 1.5555966524548863 0
vertex -1.9798989873223334 1.9798989873223327 0
endloop
endfacet
facet normal 0.7730104533627369 -0.6343932841636456 0
outer loop
vertex -2.3281149144471267 1.5555966524548863 3
vertex -1.9798989873223334 1.9798989873223327 0
vertex -1.9798989873223334 1.9798989873223327 3
endloop
endfacet
facet normal 0 0 -1
outer loop
vertex -2.3281149144471267 1.5555966524548863 0
vertex -2.4944088369076356 1.666710699058807 0
vertex -2.121320343559643 2.1213203435596424 0
endloop
endfacet
facet normal 0 0 -1
outer loop
vertex -2.3281149144471267 1.5555966524548863 0
vertex -2.121320343559643 2.1213203435596424 0
vertex -1.9798989873223334 1.9798989873223327 0
endloop
endfacet
facet normal -0.6343932841636453 0.7730104533627372 0
outer loop
vertex -2.121320343559643 2.1213203435596424 0
vertex -2.121320343559643 2.1213203435596424 3
vertex -1.6667106990588065 2.4944088369076356 3
endloop
endfacet
facet normal -0.6343932841636453 0.7730104533627372 0
outer loop
vertex -2.121320343559643 2.1213203435596424 0
vertex -1.6667106990588065 2.4944088369076356 3
vertex -1.6667106990588065 2.4944088369076356 0
endloop
endfacet
facet normal 0 0 1
outer loop
vertex -2.121320343559643 2.1213203435596424 3
vertex -1.9798989873223334 1.9798989873223327 3
vertex -1.555596652454886 2.3281149144471267 3
endloop
endfacet
facet normal 0 0 1
outer loop
vertex -2.121320343559643 2.1213203435596424 3
vertex -1.555596652454886 2.3281149144471267 3
vertex -1.6667106990588065 2.4944088369076356 3
endloop
endfacet
facet normal 0.6343932841636455 -0.7730104533627369 0
outer loop
vertex -1.9798989873223334 1.9798989873223327 3
vertex -1.9798989873223334 1.9798989873223327 0
vertex -1.555596652454886 2.3281149144471267 0
endloop
endfacet
facet normal 0.6343932841636455 -0.7730104533627369 0
outer loop
vertex -1.9798989873223334 1.9798989873223327 3
vertex -1.555596652454886 2.3281149144471267 0
vertex -1.555596652454886 2.3281149144471267 3
endloop
endfacet
facet normal 0 0 -1
outer loop
vertex -1.9798989873223334 1.9798989873223327 0
vertex -2.121320343559643 2.1213203435596424 0
vertex -1.6667106990588065 2.4944088369076356 0
endloop
endfacet
facet normal 0 0 -1
outer loop
vertex -1.9798989873223334 1.9798989873223327 0
vertex -1.6667106990588065 2.4944088369076356 0
vertex -1.555596652454886 2.3281149144471267 0
endloop
endfacet
facet normal -0.4713967368259974 0.881921264348355 0
outer loop
vertex -1.6667106990588065 2.4944088369076356 0
vertex -1.6667106990588065 2.4944088369076356 3
vertex -1.1480502970952684 2.7716385975338604 3
endloop
endfacet
facet normal -0.4713967368259974 0.881921264348355 0
outer loop
vertex -1.6667106990588065 2.4944088369076356 0
vertex -1.1480502970952684 2.7716385975338604 3
vertex -1.1480502970952684 2.7716385975338604 0
endloop
endfacet
facet normal 0 0 1
outer loop
vertex -1.6667106990588065 2.4944088369076356 3
vertex -1.555596652454886 2.3281149144471267 3
vertex -1.0715136106222505 2.586862691031603 3
endloop
endfacet
facet normal 0 0 1
outer loop
vertex -1.6667106990588065 2.4944088369076356 3
vertex -1.0715136106222505 2.586862691031603 3
vertex -1.1480502970952684 2.7716385975338604 3
endloop
endfacet
facet normal 0.4713967368259972 -0.8819212643483553 0
outer loop
vertex -1.555596652454886 2.3281149144471267 3
vertex -1.555596652454886 2.3281149144471267 0
vertex -1.0715136106222505 2.586862691031603 0
endloop
endfacet
facet normal 0.4713967368259972 -0.8819212643483553 0
outer loop
vertex -1.555596652454886 2.3281149144471267 3
vertex -1.0715136106222505 2.586862691031603 0
vertex -1.0715136106222505 2.586862691031603 3
endloop
endfacet
facet normal 0 0 -1
outer loop
vertex -1.555596652454886 2.3281149144471267 0
vertex -1.6667106990588065 2.4944088369076356 0
vertex -1.1480502970952684 2.7716385975338604 0
endloop
endfacet
facet normal 0 0 -1
outer loop
vertex -1.555596652454886 2.3281149144471267 0
vertex -1.1480502970952684 2.7716385975338604 0
vertex -1.0715136106222505 2.586862691031603 0
endloop
endfacet
facet normal -0.29028467725446233 0.9569403357322089 0
outer loop
vertex -1.1480502970952684 2.7716385975338604 0
vertex -1.1480502970952684 2.7716385975338604 3
vertex -0.585270966048386 2.942355841209691 3
endloop
endfacet
facet normal -0.29028467725446233 0.9569403357322089 0
outer loop
vertex -1.1480502970952684 2.7716385975338604 0
vertex -0.585270966048386 2.942355841209691 3
vertex -0.585270966048386 2.942355841209691 0
endloop
endfacet
facet normal 0 0 1
outer loop
vertex -1.1480502970952684 2.7716385975338604 3
vertex -1.0715136106222505 2.586862691031603 3
vertex -0.5462529016451603 2.7461987851290446 3
endloop
endfacet
facet normal 0 0 1
outer loop
vertex -1.1480502970952684 2.7716385975338604 3
vertex -0.5462529016451603 2.7461987851290446 3
vertex -0.585270966048386 2.942355841209691 3
endloop
endfacet
facet normal 0.290284677254462 -0.9569403357322089 0
outer loop
vertex -1.0715136106222505 2.586862691031603 3
vertex -1.0715136106222505 2.586862691031603 0
vertex -0.5462529016451603 2.7461987851290446 0
endloop
endfacet
facet normal 0.290284677254462 -0.9569403357322089 0
outer loop
vertex -1.0715136106222505 2.586862691031603 3
vertex -0.5462529016451603 2.7461987851290446 0
vertex -0.5462529016451603 2.7461987851290446 3
endloop
endfacet
facet normal 0 0 -1
outer loop
vertex -1.0715136106222505 2.586862691031603 0
vertex -1.1480502970952684 2.7716385975338604 0
vertex -0.585270966048386 2.942355841209691 0
endloop
endfacet
facet normal 0 0 -1
outer loop
vertex -1.0715136106222505 2.586862691031603 0
vertex -0.585270966048386 2.942355841209691 0
vertex -0.5462529016451603 2.7461987851290446 0
endloop
endfacet
facet normal -0.09801714032956134 0.9951847266721968 0
outer loop
vertex -0.585270966048386 2.942355841209691 0
vertex -0.585270966048386 2.942355841209691 3
vertex -5.510728592200698e-16 3 3
endloop
endfacet
facet normal -0.09801714032956134 0.9951847266721968 0
outer loop
vertex -0.585270966048386 2.942355841209691 0
vertex -5.510728592200698e-16 3 3
vertex -5.510728592200698e-16 3 0
endloop
endfacet
facet normal 0 0 1
outer loop
vertex -0.585270966048386 2.942355841209691 3
vertex -0.5462529016451603 2.7461987851290446 3
vertex -5.143346686053984e-16 2.8 3
endloop
endfacet
facet normal 0 0 1
outer loop
vertex -0.585270966048386 2.942355841209691 3
vertex -5.143346686053984e-16 2.8 3
vertex -5.510728592200698e-16 3 3
endloop
endfacet
facet normal 0.09801714032956141 -0.9951847266721968 0
outer loop
vertex -0.5462529016451603 2.7461987851290446 3
vertex -0.5462529016451603 2.7461987851290446 0
vertex -5.143346686053984e-16 2.8 0
endloop
endfacet
facet normal 0.09801714032956141 -0.9951847266721968 0
outer loop
vertex -0.5462529016451603 2.7461987851290446 3
vertex -5.143346686053984e-16 2.8 0
vertex -5.143346686053984e-16 2.8 3
endloop
endfacet
facet normal 0 0 -1
outer loop
vertex -0.5462529016451603 2.7461987851290446 0
vertex -0.585270966048386 2.942355841209691 0
vertex -5.510728592200698e-16 3 0
endloop
endfacet
facet normal 0 0 -1
outer loop
vertex -0.5462529016451603 2.7461987851290446 0
vertex -5.510728592200698e-16 3 0
vertex -5.143346686053984e-16 2.8 0
endloop
endfacet
facet normal 0.09801714032956059 0.9951847266721969 0
outer loop
vertex -5.510728592200698e-16 3 0
vertex -5.510728592200698e-16 3 3
vertex 0.5852709660483849 2.9423558412096913 3
endloop
endfacet
facet normal 0.09801714032956059 0.9951847266721969 0
outer loop
vertex -5.510728592200698e-16 3 0
vertex 0.5852709660483849 2.9423558412096913 3
vertex 0.5852709660483849 2.9423558412096913 0
endloop
endfacet
facet normal 0 0 1
outer loop
vertex -5.510728592200698e-16 3 3
vertex -5.143346686053984e-16 2.8 3
vertex 0.5462529016451592 2.746198785129045 3
endloop
endfacet
facet normal 0 0 1
outer loop
vertex -5.510728592200698e-16 3 3
vertex 0.5462529016451592 2.746198785129045 3
vertex 0.5852709660483849 2.9423558412096913 3
endloop
endfacet
facet normal -0.0980171403295606 -0.9951847266721969 0
outer loop
vertex -5.143346686053984e-16 2.8 3
vertex -5.143346686053984e-16 2.8 0
vertex 0.5462529016451592 2.746198785129045 0
endloop
endfacet
facet normal -0.0980171403295606 -0.9951847266721969 0
outer loop
vertex -5.143346686053984e-16 2.8 3
vertex 0.5462529016451592 2.746198785129045 0
vertex 0.5462529016451592 2.746198785129045 3
endloop
endfacet
facet normal 0 0 -1
outer loop
vertex -5.143346686053984e-16 2.8 0
vertex -5.510728592200698e-16 3 0
vertex 0.5852709660483849 2.9423558412096913 0
endloop
endfacet
facet normal 0 0 -1
outer loop
vertex -5.143346686053984e-16 2.8 0
vertex 0.5852709660483849 2.9423558412096913 0
vertex 0.5462529016451592 2.746198785129045 0
endloop
endfacet
facet normal 0.29028467725446244 0.9569403357322088 0
outer loop
vertex 0.5852709660483849 2.9423558412096913 0
vertex 0.5852709660483849 2.9423558412096913 3
vertex 1.14805029709527 2.77163859753386 3
endloop
endfacet
facet normal 0.29028467725446244 0.9569403357322088 0
outer loop
vertex 0.5852709660483849 2.9423558412096913 0
vertex 1.14805029709527 2.77163859753386 3
vertex 1.14805029709527 2.77163859753386 0
endloop
endfacet
facet normal 0 0 1
outer loop
vertex 0.5852709660483849 2.9423558412096913 3
vertex 0.5462529016451592 2.746198785129045 3
vertex 1.071513610622252 2.5868626910316026 3
endloop
endfacet
facet normal 0 0 1
outer loop
vertex 0.5852709660483849 2.9423558412096913 3
vertex 1.071513610622252 2.5868626910316026 3
vertex 1.14805029709527 2.77163859753386 3
endloop
endfacet
facet normal -0.29028467725446216 -0.9569403357322089 0
outer loop
vertex 0.5462529016451592 2.746198785129045 3
vertex 0.5462529016451592 2.746198785129045 0
vertex 1.071513610622252 2.5868626910316026 0
endloop
endfacet
facet normal -0.29028467725446216 -0.9569403357322089 0
outer loop
vertex 0.5462529016451592 2.746198785129045 3
vertex 1.071513610622252 2.5868626910316026 0
vertex 1.071513610622252 2.5868626910316026 3
endloop
endfacet
facet normal 0 0 -1
outer loop
vertex 0.5462529016451592 2.746198785129045 0
vertex 0.5852709660483849 2.9423558412096913 0
vertex 1.14805029709527 2.77163859753386 0
endloop
endfacet
facet normal 0 0 -1
outer loop
vertex 0.5462529016451592 2.746198785129045 0
vertex 1.14805029709527 2.77163859753386 0
vertex 1.071513610622252 2.5868626910316026 0
endloop
endfacet
facet normal 0.4713967368259974 0.8819212643483552 0
outer loop
vertex 1.14805029709527 2.77163859753386 0
vertex 1.14805029709527 2.77163859753386 3
vertex 1.6667106990588056 2.4944088369076365 3
endloop
endfacet
facet normal 0.4713967368259974 0.8819212643483552 0
outer loop
vertex 1.14805029709527 2.77163859753386 0
vertex 1.6667106990588056 2.4944088369076365 3
vertex 1.6667106990588056 2.4944088369076365 0
endloop
endfacet
facet normal 0 0 1
outer loop
vertex 1.14805029709527 2.77163859753386 3
vertex 1.071513610622252 2.5868626910316026 3
vertex 1.555596652454885 2.328114914447127 3
endloop
endfacet
facet normal 0 0 1
outer loop
vertex 1.14805029709527 2.77163859753386 3
vertex 1.555596652454885 2.328114914447127 3
vertex 1.6667106990588056 2.4944088369076365 3
endloop
endfacet
facet normal -0.471396736825998 -0.8819212643483549 0
outer loop
vertex 1.071513610622252 2.5868626910316026 3
vertex 1.071513610622252 2.5868626910316026 0
vertex 1.555596652454885 2.328114914447127 0
endloop
endfacet
facet normal -0.471396736825998 -0.8819212643483549 0
outer loop
vertex 1.071513610622252 2.5868626910316026 3
vertex 1.555596652454885 2.328114914447127 0
vertex 1.555596652454885 2.328114914447127 3
endloop
endfacet
facet normal 0 0 -1
outer loop
vertex 1.071513610622252 2.5868626910316026 0
vertex 1.14805029709527 2.77163859753386 0
vertex 1.6667106990588056 2.4944088369076365 0
endloop
endfacet
facet normal 0 0 -1
outer loop
vertex 1.071513610622252 2.5868626910316026 0
vertex 1.6667106990588056 2.4944088369076365 0
vertex 1.555596652454885 2.328114914447127 0
endloop
endfacet
facet normal 0.6343932841636457 0.7730104533627369 0
outer loop
vertex 1.6667106990588056 2.4944088369076365 0
vertex 1.6667106990588056 2.4944088369076365 3
vertex 2.121320343559644 2.121320343559641 3
endloop
endfacet
facet normal 0.6343932841636457 0.7730104533627369 0
outer loop
vertex 1.6667106990588056 2.4944088369076365 0
vertex 2.121320343559644 2.121320343559641 3
vertex 2.121320343559644 2.121320343559641 0
endloop
endfacet
facet normal 0 0 1
outer loop
vertex 1.6667106990588056 2.4944088369076365 3
vertex 1.555596652454885 2.328114914447127 3
vertex 1.9798989873223343 1.9798989873223316 3
endloop
endfacet
facet normal 0 0 1
outer loop
vertex 1.6667106990588056 2.4944088369076365 3
vertex 1.9798989873223343 1.9798989873223316 3
vertex 2.121320343559644 2.121320343559641 3
endloop
endfacet
facet normal -0.6343932841636454 -0.773010453362737 0
outer loop
vertex 1.555596652454885 2.328114914447127 3
vertex 1.555596652454885 2.328114914447127 0
vertex 1.9798989873223343 1.9798989873223316 0
endloop
endfacet
facet normal -0.6343932841636454 -0.773010453362737 0
outer loop
vertex 1.555596652454885 2.328114914447127 3
vertex 1.9798989873223343 1.9798989873223316 0
vertex 1.9798989873223343 1.9798989873223316 3
endloop
endfacet
facet normal 0 0 -1
outer loop
vertex 1.555596652454885 2.328114914447127 0
vertex 1.6667106990588056 2.4944088369076365 0
vertex 2.121320343559644 2.121320343559641 0
endloop
endfacet
facet normal 0 0 -1
outer loop
vertex 1.555596652454885 2.328114914447127 0
vertex 2.121320343559644 2.121320343559641 0
vertex 1.9798989873223343 1.9798989873223316 0
endloop
endfacet
facet normal 0.7730104533627374 0.6343932841636449 0
outer loop
vertex 2.121320343559644 2.121320343559641 0
vertex 2.121320343559644 2.121320343559641 3
vertex 2.4944088369076356 1.6667106990588065 3
endloop
endfacet
facet normal 0.7730104533627374 0.6343932841636449 0
outer loop
vertex 2.121320343559644 2.121320343559641 0
vertex 2.4944088369076356 1.6667106990588065 3
vertex 2.4944088369076356 1.6667106990588065 0
endloop
endfacet
facet normal 0 0 1
outer loop
vertex 2.121320343559644 2.121320343559641 3
vertex 1.9798989873223343 1.9798989873223316 3
vertex 2.3281149144471267 1.555596652454886 3
endloop
endfacet
facet normal 0 0 1
outer loop
vertex 2.121320343559644 2.121320343559641 3
vertex 2.3281149144471267 1.555596652454886 3
vertex 2.4944088369076356 1.6667106990588065 3
endloop
endfacet
facet normal -0.7730104533627371 -0.6343932841636455 0
outer loop
vertex 1.9798989873223343 1.9798989873223316 3
vertex 1.9798989873223343 1.9798989873223316 0
vertex 2.3281149144471267 1.555596652454886 0
endloop
endfacet
facet normal -0.7730104533627371 -0.6343932841636455 0
outer loop
vertex 1.9798989873223343 1.9798989873223316 3
vertex 2.3281149144471267 1.555596652454886 0
vertex 2.3281149144471267 1.555596652454886 3
endloop
endfacet
facet normal 0 0 -1
outer loop
vertex 1.9798989873223343 1.9798989873223316 0
vertex 2.121320343559644 2.121320343559641 0
vertex 2.4944088369076356 1.6667106990588065 0
endloop
endfacet
facet normal 0 0 -1
outer loop
vertex 1.9798989873223343 1.9798989873223316 0
vertex 2.4944088369076356 1.6667106990588065 0
vertex 2.3281149144471267 1.555596652454886 0
endloop
endfacet
facet normal 0.881921264348355 0.47139673682599764 0
outer loop
vertex 2.4944088369076356 1.6667106990588065 0
vertex 2.4944088369076356 1.6667106990588065 3
vertex 2.7716385975338604 1.1480502970952686 3
endloop
endfacet
facet normal 0.881921264348355 0.47139673682599764 0
outer loop
vertex 2.4944088369076356 1.6667106990588065 0
vertex 2.7716385975338604 1.1480502970952686 3
vertex 2.7716385975338604 1.1480502970952686 0
endloop
endfacet
facet normal 0 0 1
outer loop
vertex 2.4944088369076356 1.6667106990588065 3
vertex 2.3281149144471267 1.555596652454886 3
vertex 2.586862691031603 1.0715136106222507 3
endloop
endfacet
facet normal 0 0 1
outer loop
vertex 2.4944088369076356 1.6667106990588065 3
vertex 2.586862691031603 1.0715136106222507 3
vertex 2.7716385975338604 1.1480502970952686 3
endloop
endfacet
facet normal -0.8819212643483553 -0.4713967368259974 0
outer loop
vertex 2.3281149144471267 1.555596652454886 3
vertex 2.3281149144471267 1.555596652454886 0
vertex 2.586862691031603 1.0715136106222507 0
endloop
endfacet
facet normal -0.8819212643483553 -0.4713967368259974 0
outer loop
vertex 2.3281149144471267 1.555596652454886 3
vertex 2.586862691031603 1.0715136106222507 0
vertex 2.586862691031603 1.0715136106222507 3
endloop
endfacet
facet normal 0 0 -1
outer loop
vertex 2.3281149144471267 1.555596652454886 0
vertex 2.4944088369076356 1.6667106990588065 0
vertex 2.7716385975338604 1.1480502970952686 0
endloop
endfacet
facet normal 0 0 -1
outer loop
vertex 2.3281149144471267 1.555596652454886 0
vertex 2.7716385975338604 1.1480502970952686 0
vertex 2.586862691031603 1.0715136106222507 0
endloop
endfacet
facet normal 0.9569403357322089 0.2902846772544623 0
outer loop
vertex 2.7716385975338604 1.1480502970952686 0
vertex 2.7716385975338604 1.1480502970952686 3
vertex 2.942355841209691 0.5852709660483861 3
endloop
endfacet
facet normal 0.9569403357322089 0.2902846772544623 0
outer loop
vertex 2.7716385975338604 1.1480502970952686 0
vertex 2.942355841209691 0.5852709660483861 3
vertex 2.942355841209691 0.5852709660483861 0
endloop
endfacet
facet normal 0 0 1
outer loop
vertex 2.7716385975338604 1.1480502970952686 3
vertex 2.586862691031603 1.0715136106222507 3
vertex 2.7461987851290446 0.5462529016451604 3
endloop
endfacet
facet normal 0 0 1
outer loop
vertex 2.7716385975338604 1.1480502970952686 3
vertex 2.7461987851290446 0.5462529016451604 3
vertex 2.942355841209691 0.5852709660483861 3
endloop
endfacet
facet normal -0.956940335732209 -0.290284677254462 0
outer loop
vertex 2.586862691031603 1.0715136106222507 3
vertex 2.586862691031603 1.0715136106222507 0
vertex 2.7461987851290446 0.5462529016451604 0
endloop
endfacet
facet normal -0.956940335732209 -0.290284677254462 0
outer loop
vertex 2.586862691031603 1.0715136106222507 3
vertex 2.7461987851290446 0.5462529016451604 0
vertex 2.7461987851290446 0.5462529016451604 3
endloop
endfacet
facet normal 0 0 -1
outer loop
vertex 2.586862691031603 1.0715136106222507 0
vertex 2.7716385975338604 1.1480502970952686 0
vertex 2.942355841209691 0.5852709660483861 0
endloop
endfacet
facet normal 0 0 -1
outer loop
vertex 2.586862691031603 1.0715136106222507 0
vertex 2.942355841209691 0.5852709660483861 0
vertex 2.7461987851290446 0.5462529016451604 0
endloop
endfacet
facet normal 0.9951847266721968 0.09801714032956134 0
outer loop
vertex 2.942355841209691 0.5852709660483861 0
vertex 2.942355841209691 0.5852709660483861 3
vertex 3 7.347638122934264e-16 3
endloop
endfacet
facet normal 0.9951847266721968 0.09801714032956134 0
outer loop
vertex 2.942355841209691 0.5852709660483861 0
vertex 3 7.347638122934264e-16 3
vertex 3 7.347638122934264e-16 0
endloop
endfacet
facet normal 0 0 1
outer loop
vertex 2.942355841209691 0.5852709660483861 3
vertex 2.7461987851290446 0.5462529016451604 3
vertex 2.8 6.857795581405312e-16 3
endloop
endfacet
facet normal 0 0 1
outer loop
vertex 2.942355841209691 0.5852709660483861 3
vertex 2.8 6.857795581405312e-16 3
vertex 3 7.347638122934264e-16 3
endloop
endfacet
facet normal -0.9951847266721968 -0.09801714032956141 0
outer loop
vertex 2.7461987851290446 0.5462529016451604 3
vertex 2.7461987851290446 0.5462529016451604 0
vertex 2.8 6.857795581405312e-16 0
endloop
endfacet
facet normal -0.9951847266721968 -0.09801714032956141 0
outer loop
vertex 2.7461987851290446 0.5462529016451604 3
vertex 2.8 6.857795581405312e-16 0
vertex 2.8 6.857795581405312e-16 3
endloop
endfacet
facet normal 0 0 -1
outer loop
vertex 2.7461987851290446 0.5462529016451604 0
vertex 2.942355841209691 0.5852709660483861 0
vertex 3 7.347638122934264e-16 0
endloop
endfacet
facet normal 0 0 -1
outer loop
vertex 2.7461987851290446 0.5462529016451604 0
vertex 3 7.347638122934264e-16 0
vertex 2.8 6.857795581405312e-16 0
endloop
endfacet
endsolid csg.js
