solid csg.js
facet normal 0 0 -1
outer loop
vertex 0 0.19999999999999998 0
vertex 2 0.2 0
vertex 2 0 0
endloop
endfacet
facet normal 0 0 -1
outer loop
vertex 0 0.19999999999999998 0
vertex 2 0 0
vertex 0 0 0
endloop
endfacet
facet normal 0 0 1
outer loop
vertex 0 0.19999999999999998 3
vertex 0 0 3
vertex 2 0 3
endloop
endfacet
facet normal 0 0 1
outer loop
vertex 0 0.19999999999999998 3
vertex 2 0 3
vertex 2 0.19999999999999996 3
endloop
endfacet
facet normal 0 -1 0
outer loop
vertex 2 0 3
vertex 0 0 3
vertex 0 0 0
endloop
endfacet
facet normal 0 -1 0
outer loop
vertex 2 0 3
vertex 0 0 0
vertex 2 0 0
endloop
endfacet
facet normal 1 0 0
outer loop
vertex 2 0.2 3
vertex 2 0 3
vertex 2 0 0
endloop
endfacet
facet normal 1 0 0
outer loop
vertex 2 0.2 3
vertex 2 0 0
vertex 2 0.2 0
endloop
endfacet
facet normal 0 1 0
outer loop
vertex 0 0.2 3
vertex 2 0.2 3
vertex 2 0.2 0
endloop
endfacet
facet normal 0 1 0
outer loop
vertex 0 0.2 3
vertex 2 0.2 0
vertex 0 0.2 0
endloop
endfacet
facet normal -1 0 0
outer loop
vertex 0 0 3
vertex 0 0.2 3
vertex 0 0.2 0
endloop
endfacet
facet normal -1 0 0
outer loop
vertex 0 0 3
vertex 0 0.2 0
vertex 0 0 0
endloop
endfacet
endsolid csg.js
